<svg xmlns="http://www.w3.org/2000/svg" width="512" height="512" viewBox="0 0 315.976 315.976"><g xmlns="http://www.w3.org/2000/svg" fill="#61dafb"><path d="M157.985 130.255c-15.24 0-27.641 12.406-27.641 27.647 0 15.246 12.401 27.647 27.641 27.647 15.246 0 27.647-12.401 27.647-27.647 0-15.24-12.401-27.647-27.647-27.647z" data-original="#010002"/><path d="M315.968 161.323c.212-9.573-3.905-18.781-12.232-27.369v-.022c0-8.164-6.641-14.805-14.811-14.805-1.382 0-2.752.19-4.079.582-5.107-2.948-10.699-5.689-16.649-8.175-3.965-1.653-8.463-3.307-13.658-5.026 11.112-40.244 7.049-69.897-11.313-81.662-19.243-12.358-51.084-1.463-85.241 29.54-34.146-30.986-65.954-41.924-85.241-29.54-11.683 7.484-17.699 22.295-17.47 42.92a14.711 14.711 0 00-5.852 11.737c0 5.88 3.47 11.09 8.697 13.456.636 3.111 1.43 6.478 2.41 10.193C22.456 114.683.471 133.274.009 154.48c-.419 19.059 16.546 36.746 47.76 49.784 3.987 1.675 8.512 3.334 13.745 5.058-1.474 5.26-2.611 9.937-3.465 14.234-6.581 33.184-1.36 57.121 14.702 67.417 19.347 12.358 51.116 1.425 85.241-29.556 24.677 22.398 48.234 34.696 66.596 34.707 7.027 0 13.299-1.73 18.651-5.156 16.056-10.291 21.272-34.228 14.691-67.412-.647-3.258-1.485-6.848-2.54-10.867 38.104-11.541 60.116-30.142 60.578-51.366zM80.783 278.399c-10.225-6.549-13.26-25.972-8.11-51.949.756-3.802 1.779-8.017 3.117-12.804 14.185 3.786 29.697 6.636 46.216 8.474 8.18 10.519 16.638 20.222 25.188 28.914-27.538 24.793-53.455 35.654-66.411 27.365zm0-240.999c12.918-8.235 38.873 2.578 66.411 27.375-8.186 8.316-16.279 17.541-24.09 27.484-17.155 1.235-33.271 3.584-48.005 7.011a190.163 190.163 0 01-1.876-8.05c3.606-2.763 5.803-7.087 5.803-11.716 0-5.896-3.525-11.15-8.724-13.505.005-10.563 2.002-23.166 10.481-28.599zm-.636 161.986c2.834-8.202 6.211-16.6 10.084-25.069a394.373 394.373 0 0011.71 19.494 349.85 349.85 0 007.772 11.629c-10.491-1.61-20.391-3.634-29.566-6.054zm21.8-77.393a397.883 397.883 0 00-11.661 19.396c-4.199-9.284-7.832-18.531-10.862-27.636 9.921-2.284 20.511-4.074 31.639-5.341a383.268 383.268 0 00-9.116 13.581zm-3.563 35.86a368.804 368.804 0 0116.121-27.815c4.906-7.658 10.389-15.485 16.306-23.306a359.33 359.33 0 0128.294-.462c8.996.196 18.036.707 26.869 1.539 5.608 7.468 10.818 14.93 15.496 22.224a368.895 368.895 0 0116.116 27.821c-5.086 9.758-10.503 19.14-16.116 27.908-4.933 7.696-10.405 15.523-16.301 23.301-9.339.511-18.738.664-28.305.457a370.356 370.356 0 01-26.869-1.534c-5.619-7.473-10.818-14.947-15.49-22.224-5.607-8.752-11.025-18.135-16.121-27.909zm106.519 49.539a390.662 390.662 0 009.121-13.581 392.539 392.539 0 0011.71-19.504c4.253 9.344 7.93 18.618 10.949 27.707-9.959 2.305-20.603 4.105-31.78 5.378zm9.121-85.399a352.736 352.736 0 00-7.778-11.634c10.421 1.599 20.288 3.617 29.463 6.032-2.834 8.186-6.19 16.562-10.024 25.003a398.055 398.055 0 00-11.661-19.401zm26.042-19.868c-14.191-3.78-29.676-6.608-46.102-8.441-8.18-10.519-16.633-20.222-25.188-28.903 27.538-24.797 53.515-35.61 66.416-27.375 12.162 7.793 13.93 31.85 4.874 64.719zm-80.634-10.77a412.14 412.14 0 00-8.583-.092c-2.578 0-5.14.022-7.68.076 4.868-5.7 9.823-11.112 14.827-16.176a308.016 308.016 0 0115.349 16.785 372.8 372.8 0 00-13.913-.593zm-94.7 26.287c4.215 12.76 9.883 26.287 16.861 40.293-6.364 12.804-11.645 25.27-15.713 37.127-4.71-1.556-8.773-3.062-12.368-4.558-24.438-10.209-38.868-23.551-38.596-35.702.299-14.006 18.841-27.772 49.816-37.16zm91.817 106.802c5.477.114 10.916.125 16.263.016a309.81 309.81 0 01-14.827 16.192 303.76 303.76 0 01-15.354-16.796c4.971.299 9.518.49 13.918.588zm36.317-.892c17.16-1.229 33.314-3.59 48.109-7.038.963 3.682 1.73 6.951 2.328 9.943 5.151 25.966 2.127 45.389-8.099 51.943-12.945 8.289-38.884-2.589-66.422-27.358 8.175-8.307 16.257-17.526 24.084-27.49zm58.252-25.363c-4.27-12.961-9.888-26.472-16.747-40.265 6.342-12.722 11.64-25.199 15.752-37.165 4.737 1.572 8.724 3.04 12.33 4.542a138.67 138.67 0 0111.982 5.695c-.207.968-.31 1.947-.31 2.932 0 8.159 6.647 14.8 14.8 14.8 2.295 0 4.536-.538 6.56-1.556 3.802 4.705 5.673 9.344 5.57 13.832-.289 14.015-18.874 27.787-49.937 37.185z" data-original="#010002"/></g></svg>