<svg xmlns="http://www.w3.org/2000/svg" width="512" height="512"><path d="M484.629 225.058c-20.379-70.018-43.361-106.196-43.732-106.845-1.31-1.599-33.786-40.463-112.059-69.209l-10.343 28.16c37.237 13.676 63.655 30.36 78.184 41.14C353.303 105.351 301.702 97.418 256 97.418s-97.303 7.933-140.679 20.886c14.528-10.779 40.946-27.464 78.183-41.14l-10.343-28.16C104.89 77.75 72.414 116.614 71.104 118.213c-.371.649-23.354 36.827-43.732 106.845C7.732 292.534.271 387.723 0 391.54c1.75 2.736 42 71.456 151.693 71.456l27.804-40.262c-31.15-8.271-60.853-21.609-88.043-39.708l16.623-24.973c43.865 29.197 95.016 44.631 147.923 44.631s104.058-15.434 147.923-44.631l16.623 24.973c-27.189 18.099-56.893 31.437-88.043 39.708l27.804 40.262C470 462.996 510.25 394.276 512 391.54c-.271-3.817-7.732-99.006-27.371-166.482zM186.642 303.54h-30v-50h30zm168.716 0h-30v-50h30z" fill="#fff" data-original="#000000" xmlns="http://www.w3.org/2000/svg"/></svg>