<svg xmlns="http://www.w3.org/2000/svg" width="512" height="512"><g xmlns="http://www.w3.org/2000/svg" fill="#545454"><path d="M508.533 325.669A15 15 0 00497 320.26H358.162l-92.239-26.32v-39.656c16.311-14.972 27.741-35.178 31.604-57.929a44.746 44.746 0 0016.444 3.125c24.814 0 45-20.187 45-45V94.477c0-24.813-20.186-45-45-45-5.259 0-10.306.915-15 2.58V15c0-8.284-6.716-15-15-15H153.676c-30.103 0-54.956 22.886-58.09 52.172a44.798 44.798 0 00-15.34-2.695c-24.813 0-45 20.187-45 45v60.003c0 24.813 20.187 45 45 45a44.746 44.746 0 0016.444-3.125c3.863 22.75 15.291 42.956 31.603 57.928v39.595L39.851 318.61C17.505 324.859 0 347.93 0 371.134V497c0 8.284 6.716 15 15 15h451.996c7.23 0 13.43-5.156 14.748-12.264l30.003-161.74a15 15 0 00-3.214-12.327zM298.971 94.477c0-8.271 6.728-15 15-15s15 6.729 15 15v60.003c0 8.272-6.728 15-15 15s-15-6.728-15-15zM95.247 154.48c0 8.272-6.729 15-15 15s-15-6.728-15-15V94.477c0-8.271 6.729-15 15-15s15 6.729 15 15zm30-96.049c0-15.677 12.754-28.431 28.43-28.431h115.295v49.479H125.247zm0 120.818V109.48h143.725v69.769c0 39.625-32.237 71.862-71.863 71.862-39.625 0-71.862-32.237-71.862-71.862zm110.675 94.171v28.188C232.392 307.576 220.96 323 197.108 323c-23.658 0-35.185-15.377-38.814-21.449V273.42c11.97 4.951 25.077 7.691 38.814 7.691s26.845-2.74 38.814-7.691zM254.517 482H30.001V371.134c0-9.744 8.546-21.009 17.931-23.632l88.533-24.759c9.139 12.38 27.986 30.257 60.644 30.257 32.613 0 51.454-17.828 60.605-30.206l25.236 7.201zm200.006 0H285.029l24.438-131.74h169.494z" data-original="#000000"/><circle cx="382" cy="416.13" r="15" data-original="#000000"/></g></svg>