<svg xmlns="http://www.w3.org/2000/svg" width="512" height="512" viewBox="0 0 511.533 511.533"><path xmlns="http://www.w3.org/2000/svg" d="M436.621 74.912C388.313 26.604 324.084 0 255.767 0S123.22 26.604 74.912 74.912 0 187.449 0 255.767s26.604 132.546 74.912 180.854 112.537 74.912 180.854 74.912 132.547-26.604 180.854-74.912c48.308-48.308 74.912-112.537 74.912-180.854S484.929 123.22 436.621 74.912zm.125 240.114l43.062-31.137c-3.574 28.944-12.662 56.616-26.732 81.786zm-20.201-22.413L345.03 269.05l-24.828-76.415 44.441-60.748 80.028.136c22.188 33.721 34.863 72.757 36.635 113.762zm-160.778 25.933l-59.706-43.379 22.806-70.189h73.801l22.806 70.189zm-89.237-49.577l-71.628 23.199-64.651-47.027c1.886-40.986 14.672-79.987 36.961-113.654l80.007.091 44.13 61.006zM58.146 365.111c-13.993-25.204-23.002-52.898-26.495-81.855l42.968 31.255zm362.893-263.128l-53.077-.09-16.378-50.674c23.415 10.986 44.991 26.075 63.823 44.907a231.586 231.586 0 015.632 5.857zM315.792 38.028l24.62 76.171-44.464 60.778h-80.31l-44.122-60.995 24.843-76.116C215.484 32.684 235.418 30 255.767 30c20.566 0 40.712 2.737 60.025 8.028zM160.531 50.952l-16.522 50.622-53.079-.06a231.078 231.078 0 015.196-5.388c18.988-18.988 40.766-34.166 64.405-45.174zm-81.13 345.779l24.751-76.025 71.621-23.197 64.993 47.22v75.288l-64.778 47.064c-29.628-11.17-56.803-28.614-79.863-51.674a229.629 229.629 0 01-16.724-18.676zm133.352 80.722l43.013-31.251 43.013 31.251c-14.029 2.692-28.414 4.08-43.013 4.08s-28.984-1.389-43.013-4.08zm122.791-10.371l-64.778-47.064V344.73l64.925-47.171 71.499 23.558 24.541 76.116a229.73 229.73 0 01-16.323 18.175c-23.061 23.06-50.236 40.504-79.864 51.674z" fill="#fff" data-original="#000000"/></svg>