<svg xmlns="http://www.w3.org/2000/svg" width="512" height="512"><path d="M466 242.581c0-168.832.472-158.076-1.102-161.96 3.369-8.323-1.27-17.612-9.777-20.043l-210-60a14.989 14.989 0 00-8.241 0l-210 60C20.439 62.417 16 68.303 16 75.001s4.439 12.583 10.879 14.423L106 112.029V180c0 58.278 30.068 108.896 73.87 133.718l-8.275 16.55c-40.483 2.316-78.308 19.564-107.364 49.156C33.129 411.1 16 452.855 16 497.001c0 8.284 6.716 15 15 15h420c8.284 0 15-6.716 15-15 0-44.145-17.129-85.9-48.231-117.575-29.054-29.59-66.879-46.827-107.359-49.146l-8.281-16.561C345.932 288.897 376 238.279 376 180.001V112.03l60-17.143v147.694c-17.459 6.192-30 22.865-30 42.42v30c0 8.284 6.716 15 15 15h60c8.284 0 15-6.716 15-15v-30c0-19.555-12.541-36.229-30-42.42zm-240 239.42H46.804c7.103-65.907 60.46-117.899 126.328-121.761L226 439.543v42.458zm-27.691-138.078l9.286-18.573c10.687 3.034 21.879 4.651 33.405 4.651s22.717-1.617 33.404-4.65l9.286 18.572L241 407.959l-42.691-64.036zm110.559 16.318c65.868 3.86 119.225 55.853 126.328 121.76H256v-42.458l52.868-79.302zM241 300.001c-50.888 0-93.431-41.589-102.988-96.587 31.678 14.133 67.086 21.587 102.988 21.587 35.9 0 71.308-7.453 102.987-21.584-9.557 54.996-52.1 96.584-102.987 96.584zm104.672-136.932c-.872 4.334-3.441 7.986-7.037 9.752C309.102 187.331 275.341 195 241 195c-34.344 0-68.106-7.671-97.637-22.183-4.892-2.403-7.363-7.967-7.363-13.031V120.6C244.861 151.703 237.999 150 241 150c3 0-3.883 1.71 105-29.4 0 43.057.119 40.268-.328 42.469zM241 119.401l-155.399-44.4L241 30.6 396.399 75 241 119.401zm225 180.6h-30v-15c0-8.271 6.729-15 15-15s15 6.729 15 15v15z" fill="#545454" data-original="#000000" xmlns="http://www.w3.org/2000/svg"/><path d="M361 420.001h-30c-8.284 0-15 6.716-15 15s6.716 15 15 15h30c8.284 0 15-6.716 15-15s-6.716-15-15-15z" fill="#545454" data-original="#000000" xmlns="http://www.w3.org/2000/svg"/></svg>