<svg xmlns="http://www.w3.org/2000/svg" width="512" height="512"><g xmlns="http://www.w3.org/2000/svg" fill="#fff"><path d="M156.704 42.836C150.082 18.196 127.56 0 100.859 0 68.973 0 43.032 25.941 43.032 57.827v396.347h.016c-.018 14.668 5.364 28.502 15.43 39.342C69.387 505.263 84.833 512 100.859 512h306.8l.642-59.965h60.667V42.836zm-55.845-12.854c15.353 0 27.844 12.491 27.844 27.844v345.657c-9.983-5.476-21.61-8.023-33.575-6.859-7.792.756-15.311 3.129-22.114 6.88V57.827c.001-15.353 12.491-27.845 27.845-27.845zm277.138 452.036H100.859c-7.83 0-15.079-3.162-20.411-8.904-5.325-5.734-7.937-13.228-7.353-21.098.985-13.281 11.702-24.264 24.929-25.548.926-.09 1.846-.134 2.76-.134 11.064 0 21.134 6.465 25.609 16.709l3.927 8.99 247.998.002zm60.988-59.965l-280.3-.002V72.818h280.3z" data-original="#000000"/><path d="M409.215 270.293V102.93H191.217v167.363zm-83.92-83.681l53.726-39.197v78.393zm22.733 53.699H251.69l48.169-35.143zm-48.169-72.256l-48.169-35.142h96.338zm-25.435 18.557l-53.726 39.197v-78.393zm-83.207 113.495h217.998v29.982H191.217zm0 59.965h217.998v29.982H191.217z" data-original="#000000"/></g></svg>