<svg width="25" height="24" fill="none" xmlns="http://www.w3.org/2000/svg"><g clip-path="url(#clip0)"><path d="M20.852 3.881A11.399 11.399 0 0012.733.516 11.399 11.399 0 004.615 3.88 11.426 11.426 0 001.249 12a11.4 11.4 0 003.366 8.119 11.427 11.427 0 008.118 3.365c3.066 0 5.953-1.195 8.12-3.365A11.427 11.427 0 0024.217 12c0-3.066-1.195-5.953-3.366-8.119zm2.325 7.603h-4.453c-.042-1.771-.29-3.478-.727-4.992a11.388 11.388 0 002.368-1.631 10.429 10.429 0 012.812 6.623zm-9.928 1.032h4.449c-.038 1.63-.263 3.192-.652 4.589-1.2-.483-2.48-.764-3.797-.825v-3.764zm6.375-8.372c-.6.53-1.256.98-1.95 1.354a12.04 12.04 0 00-.605-1.406c-.445-.881-.951-1.603-1.509-2.156a10.41 10.41 0 014.064 2.208zm-6.375-2.438c1.073.24 2.086 1.228 2.902 2.84.22.437.417.9.59 1.393a10.52 10.52 0 01-3.492.783V1.706zm3.802 5.222c.384 1.388.604 2.94.642 4.561h-4.444V7.758a11.6 11.6 0 003.802-.83zm-4.833 4.556H7.769c.038-1.621.258-3.173.643-4.56 1.2.487 2.484.768 3.801.824v3.736h.005zm.005-9.778v5.016a10.493 10.493 0 01-3.493-.783c.174-.492.37-.956.59-1.392.816-1.613 1.829-2.602 2.902-2.84zm-2.311.23c-.558.553-1.065 1.28-1.51 2.156-.22.44-.422.91-.605 1.406a10.6 10.6 0 01-1.95-1.354 10.41 10.41 0 014.065-2.208zM5.107 4.86c.726.647 1.519 1.19 2.367 1.631-.436 1.519-.689 3.22-.727 4.992H2.294A10.43 10.43 0 015.107 4.86zm-2.813 7.655h4.453c.043 1.786.296 3.496.736 5.02-.843.436-1.636.975-2.357 1.622a10.413 10.413 0 01-2.832-6.642zm3.572 7.359c.6-.525 1.252-.975 1.94-1.345.179.482.376.947.596 1.378.445.881.952 1.603 1.51 2.16a10.462 10.462 0 01-4.046-2.193zm6.357 2.419c-1.074-.24-2.087-1.228-2.902-2.84a12.043 12.043 0 01-.581-1.365 10.348 10.348 0 013.482-.778v4.983zm-3.797-5.19c-.39-1.396-.614-2.957-.652-4.588h4.449v3.764a11.358 11.358 0 00-3.797.825zm4.828 5.19V17.31c1.21.06 2.386.323 3.482.778-.173.483-.365.938-.58 1.364-.816 1.613-1.829 2.602-2.902 2.84zm2.31-.23c.558-.553 1.065-1.28 1.51-2.16.22-.432.417-.896.595-1.379.69.37 1.341.82 1.941 1.345a10.342 10.342 0 01-4.045 2.194zm4.791-2.906a11.47 11.47 0 00-2.358-1.622c.441-1.524.694-3.24.736-5.02h4.453a10.462 10.462 0 01-2.83 6.642z" fill="#fff"/></g><defs><clipPath id="clip0"><path fill="#fff" transform="translate(.733)" d="M0 0h24v24H0z"/></clipPath></defs></svg>