<svg width="185" height="31" fill="none" xmlns="http://www.w3.org/2000/svg"><path d="M12.888 8.568l1.6 3.552-10.112 4.224 10.112 4.096-1.6 3.68-12.8-5.536v-4.448l12.8-5.568zm148.9-7.68l4.416.992-7.52 28.704-4.448-1.024L161.788.888zm9.745 7.68l12.8 5.568v4.448l-12.8 5.536-1.6-3.68 10.112-4.096-10.112-4.224 1.6-3.552z" fill="#545454"/><path d="M28.247 18.531L25.997 21v6h-5.485V4.25h5.485v10.031l1.906-2.89L32.81 4.25h6.782l-7.688 10.063L39.591 27h-6.5l-4.844-8.469zM48.425 27h-5.469V4.25h5.469V27zm13.303-12.875l4.188-9.875h5.922l-7.329 14.578V27h-5.562v-8.172L51.634 4.25h5.891l4.203 9.875zm27.475 3.234h-8.625v5.422h10.188V27H75.094V4.25h15.703v4.234H80.578v4.797h8.625v4.078zM113.6 27h-5.453l-8.063-14.156V27H94.6V4.25h5.484l8.047 14.156V4.25h5.469V27zm10.912 0h-5.468V4.25h5.468V27zm18.616-4.25h-7.515L134.3 27h-5.859l8.343-22.75h5.157L150.347 27h-5.891l-1.328-4.25zm-6.203-4.234h4.891l-2.453-7.891-2.438 7.89z" fill="#fff"/></svg>